<?xml version="1.0" encoding="utf-8"?>
<!-- Generator: Adobe Illustrator 25.2.3, SVG Export Plug-In . SVG Version: 6.00 Build 0)  -->
<svg version="1.1" id="Layer_1" xmlns="http://www.w3.org/2000/svg" xmlns:xlink="http://www.w3.org/1999/xlink" x="0px" y="0px"
	 width="314px" height="175px" viewBox="0 0 314 175" style="enable-background:new 0 0 314 175;" xml:space="preserve">
<style type="text/css">
	.st0{fill:#3333A5;}
	.st1{fill:none;stroke:#3333A5;stroke-width:0.3917;stroke-miterlimit:10;}
	.st2{fill:none;stroke:#3333A5;stroke-width:0.3917;stroke-miterlimit:10;stroke-dasharray:0.7835;}
	.st3{fill:#87DAE1;}
</style>
<g>
	<g>
		<g>
			<path class="st0" d="M37.2,19.6c1.9,0,1.9-2.9,0-2.9C35.3,16.7,35.3,19.6,37.2,19.6L37.2,19.6z"/>
		</g>
	</g>
	<g>
		<g>
			<path class="st0" d="M189.8,18.7c1.9,0,1.9-2.9,0-2.9C187.9,15.8,187.9,18.7,189.8,18.7L189.8,18.7z"/>
		</g>
	</g>
	<g>
		<g>
			<path class="st0" d="M36.4,64.3c1.9,0,1.9-2.9,0-2.9C34.5,61.4,34.5,64.3,36.4,64.3L36.4,64.3z"/>
		</g>
	</g>
	<line class="st1" x1="36.4" y1="23.5" x2="36.4" y2="55.3"/>
	<line class="st1" x1="42.6" y1="17.1" x2="133.9" y2="17.4"/>
	<line class="st1" x1="139.6" y1="17.2" x2="182.8" y2="17.2"/>
	<g>
		<g>
			<path class="st0" d="M311.8,18.7c1.9,0,1.9-2.9,0-2.9C309.9,15.8,309.9,18.7,311.8,18.7L311.8,18.7z"/>
		</g>
	</g>
	<line class="st1" x1="261.6" y1="17.2" x2="304.8" y2="17.2"/>
	<line class="st1" x1="200.6" y1="17.2" x2="243.8" y2="17.2"/>
	<line class="st2" x1="75.1" y1="34.3" x2="1.1" y2="2.3"/>
	
		<rect x="34.1" y="104.1" transform="matrix(0.7071 -0.7071 0.7071 0.7071 -64.569 56.9256)" class="st3" width="4.6" height="4.6"/>
	
		<rect x="252.1" y="15.1" transform="matrix(0.7071 -0.7071 0.7071 0.7071 62.2142 185.0074)" class="st3" width="4.6" height="4.6"/>
	<line class="st1" x1="36.4" y1="69.8" x2="36.4" y2="101.6"/>
	<line class="st1" x1="36.4" y1="114.5" x2="36.4" y2="167.3"/>
	<g>
		<g>
			<path class="st0" d="M36.4,173.3c2.5,0,2.5-3.9,0-3.9C33.9,169.4,33.9,173.3,36.4,173.3L36.4,173.3z"/>
		</g>
	</g>
</g>
</svg>
