<?xml version="1.0" encoding="utf-8"?>
<!-- Generator: Adobe Illustrator 25.2.3, SVG Export Plug-In . SVG Version: 6.00 Build 0)  -->
<svg version="1.1" id="Layer_1" xmlns="http://www.w3.org/2000/svg" xmlns:xlink="http://www.w3.org/1999/xlink" x="0px" y="0px"
	 viewBox="0 0 670 997" style="enable-background:new 0 0 670 997;" xml:space="preserve">
<style type="text/css">
	.st0{fill:#2A18A3;}
	.st1{fill:#3128B3;}
	.st2{fill:#1F1887;}
	.st3{fill:#87DAE1;}
</style>
<g>
	<path class="st0" d="M480.9,0.1L-1,217.1v658l188.4,122L669,780.9V122.3L480.9,0.1z M187.5,790.1V338.5l293.5-139.6v456.2
		L187.5,790.1z"/>
	<polygon class="st1" points="481,0.1 481,198.9 187.5,338.5 -1,217.1 	"/>
	<polygon class="st2" points="187.5,997.1 -1,875.1 -1,217.1 187.5,338.5 	"/>
	<polygon class="st0" points="481,0.1 481,655.1 669,780.9 669,122.3 	"/>
	<polygon class="st1" points="187.5,997.1 669,780.9 481,655.1 187.5,790.1 	"/>
	<polygon class="st3" points="481,655.1 669,780.9 669,568.7 	"/>
</g>
</svg>
