<?xml version="1.0" encoding="utf-8"?>
<!-- Generator: Adobe Illustrator 25.2.3, SVG Export Plug-In . SVG Version: 6.00 Build 0)  -->
<svg version="1.1" id="Layer_1" xmlns="http://www.w3.org/2000/svg" xmlns:xlink="http://www.w3.org/1999/xlink" x="0px" y="0px"
	 width="7px" height="170px" viewBox="0 0 7 170" style="enable-background:new 0 0 7 170;" xml:space="preserve">
<style type="text/css">
	.st0{fill:#3333A5;}
	.st1{fill:none;stroke:#3333A5;stroke-width:0.3099;stroke-miterlimit:10;}
	.st2{fill:#87DAE1;}
</style>
<g>
	<g>
		<g>
			<path class="st0" d="M3.5,5.1c1.5,0,1.5-2.3,0-2.3C2,2.8,2,5.1,3.5,5.1L3.5,5.1z"/>
		</g>
	</g>
	<g>
		<g>
			<path class="st0" d="M3.5,39.4c1.5,0,1.5-2.3,0-2.3C2,37.1,2,39.4,3.5,39.4L3.5,39.4z"/>
		</g>
	</g>
	<line class="st1" x1="3.5" y1="8.2" x2="3.5" y2="33.3"/>
	<rect x="1.7" y="72.9" transform="matrix(0.7071 -0.7071 0.7071 0.7071 -51.8176 24.363)" class="st2" width="3.6" height="3.6"/>
	<line class="st1" x1="3.5" y1="44.8" x2="3.5" y2="69.9"/>
	<line class="st1" x1="3.5" y1="80.1" x2="3.5" y2="162.4"/>
	<g>
		<g>
			<path class="st0" d="M3.5,168c2,0,2-3.1,0-3.1C1.5,164.9,1.5,168,3.5,168L3.5,168z"/>
		</g>
	</g>
</g>
</svg>
